# xmcd
#
# Track frame offsets:
#	150
#	12531
#	24345
#	35270
#	48146
#	58217
#	72161
#	85600
#	96776
#	106669
#	116934
#	127299
#	140040
#	151541
#	163416
#	171874
#
# Disc length: 2449 seconds
#
# Revision: 1
# Processed by: cddbd v1.5.2PL0 Copyright (c) Steve Scherf et al.
# Submitted via: audiograbber 1.83.01
#
DISCID=d5098f10
DTITLE=Various Artist - Golden Age of Country: Waltz Across Texas [Disc 2]
DYEAR=2009
DGENRE=Country
TTITLE0=Hank Williams - Lovesick Blues
TTITLE1=Patsy Cline - Walkin' After Midnight
TTITLE2=Webb Pierce - There Stands the Glass
TTITLE3=Kitty Wells - Makin' Believe
TTITLE4=Johnny Cash - Ballad of a Teenage Queen
TTITLE5=Patti Page - The Tennessee Waltz
TTITLE6=Bobby Helms - My Special Angel
TTITLE7=George Jones - Tender Years
TTITLE8=Loretta Lynn: Don't Come Home A - Drinkin' (With Lovin' on Your Mind)
TTITLE9=Conway Twitty - It's Only Make Believe
TTITLE10=Wilburn Brothers - Trouble's Back in Town
TTITLE11=Bill Anderson - Still
TTITLE12=Roy Drusky - Three Hearts in a Tangle
TTITLE13=Jerry Lee Lewis - What's Made Milwaukee Famous (Has Made a Loser Out o
TTITLE13=f Me)
TTITLE14=Roger Miller - Dang Me
TTITLE15=Osborne Brothers - Rocky Top
EXTD=
EXTT0=
EXTT1=
EXTT2=
EXTT3=
EXTT4=
EXTT5=
EXTT6=
EXTT7=
EXTT8=
EXTT9=
EXTT10=
EXTT11=
EXTT12=
EXTT13=
EXTT14=
EXTT15=
PLAYORDER=
